<svg width="57" height="57" viewBox="0 0 57 57" fill="none" xmlns="http://www.w3.org/2000/svg">
<path fill-rule="evenodd" clip-rule="evenodd" d="M28.4208 56.8295C43.8848 56.8295 56.4208 44.2934 56.4208 28.8295C56.4208 13.3655 43.8848 0.829468 28.4208 0.829468C12.9568 0.829468 0.420776 13.3655 0.420776 28.8295C0.420776 44.2934 12.9568 56.8295 28.4208 56.8295ZM23.9889 24.5273C23.9889 25.8272 24.9878 26.662 28.0941 27.4693C31.2004 28.2767 34.5256 29.604 34.5256 33.4903C34.5256 36.2955 32.4046 37.8418 29.7362 38.3481V39.2376C29.7362 40.3734 28.8193 41.2902 27.6836 41.2902C26.5478 41.2902 25.631 40.3734 25.631 39.2376V38.3208C23.5784 37.8829 21.7584 36.7608 20.9784 34.8587C20.6363 34.0103 21.2794 33.0798 22.1963 33.0798H22.5794C23.1405 33.0798 23.6057 33.4629 23.811 33.9966C24.2626 35.1461 25.4257 35.9534 27.6836 35.9534C30.7077 35.9534 31.3783 34.4482 31.3783 33.504C31.3783 32.2314 30.6941 31.0272 27.273 30.2061C23.4552 29.2893 20.8416 27.7156 20.8416 24.5546C20.8416 21.9136 22.9763 20.1894 25.631 19.6147V18.7115C25.631 17.5758 26.5478 16.6589 27.6836 16.6589C28.8193 16.6589 29.7362 17.5758 29.7362 18.7115V19.6557C31.8709 20.1757 33.2119 21.5168 33.7866 23.1315C34.1014 23.9799 33.4582 24.8694 32.5551 24.8694H32.1446C31.5698 24.8694 31.1183 24.4588 30.954 23.9115C30.5983 22.7346 29.6267 21.9957 27.6836 21.9957C25.371 21.9957 23.9889 23.0357 23.9889 24.5273Z" fill="white"/>
</svg>
